<svg width="97" height="26" viewBox="0 0 97 26" fill="none" xmlns="http://www.w3.org/2000/svg">
<path d="M83.9178 13.4014C83.9178 14.1266 84.5559 14.5617 85.4552 14.5617C86.7025 14.5617 87.7177 13.6915 87.7177 12.4442V12.3281H85.4262C84.4689 12.3281 83.9178 12.6762 83.9178 13.4014Z" fill="#833AE0"/>
<path d="M94.3023 0H77.3332C75.8538 0 74.6645 1.18929 74.6645 2.66866V19.6379C74.6645 21.1172 75.8538 22.3065 77.3332 22.3065H81.8003C82.1773 22.3065 82.4964 22.4516 82.7575 22.7126L84.875 24.5981C85.1071 24.8301 85.4552 25.0042 85.8322 25.0042C86.2093 25.0042 86.5284 24.8591 86.7895 24.5981L88.907 22.7126C89.1391 22.4806 89.4872 22.3065 89.8642 22.3065H94.3314C95.8107 22.3065 97 21.1172 97 19.6379V2.66866C96.971 1.18929 95.7817 0 94.3023 0ZM90.6474 16.4761H87.9498V15.4318C87.1956 16.244 86.0643 16.7371 84.672 16.7371C82.3224 16.7371 80.959 15.3448 80.959 13.5173C80.959 11.5739 82.5544 10.3846 85.0201 10.3846H87.7177V9.92045C87.7177 8.76017 87.0506 8.03499 85.7162 8.03499C84.5559 8.03499 83.7727 8.58612 82.8735 9.51435L81.3651 7.71591C82.6125 6.20754 84.1498 5.51136 86.0353 5.51136C88.762 5.51136 90.6184 7.04874 90.6184 10.0945V16.4761H90.6474Z" fill="#833AE0"/>
<path d="M15.3738 14.9677C15.3738 19.3478 12.4441 22.5676 8.32506 22.5676C6.32356 22.5676 4.64115 21.7844 3.6549 20.4211V22.2195H0V0.174072H3.97398V9.07927C4.98923 7.94799 6.49761 7.33884 8.32506 7.33884C12.4441 7.36785 15.3738 10.5876 15.3738 14.9677ZM11.3418 14.9387C11.3418 12.4731 9.63038 10.9357 7.57087 10.9357C5.71441 10.9357 3.88696 12.212 3.88696 14.9677C3.88696 17.7524 5.74342 18.9707 7.57087 18.9707C9.65939 18.9707 11.3418 17.4043 11.3418 14.9387Z" fill="#833AE0"/>
<path d="M30.1384 13.6045V22.2486H26.5126V20.8272C25.4973 21.9005 23.9599 22.5967 22.0745 22.5967C18.9127 22.5967 17.0562 20.7112 17.0562 18.2456C17.0562 15.606 19.2027 14.0106 22.5386 14.0106H26.1935V13.3434C26.1935 11.748 25.2943 10.7908 23.4958 10.7908C21.9294 10.7908 20.8562 11.5159 19.6379 12.7923L17.5783 10.3557C19.2898 8.32516 21.3783 7.36792 23.9309 7.36792C27.6148 7.36792 30.1384 9.45644 30.1384 13.6045ZM26.1935 16.7952V16.6212H23.0607C21.7554 16.6212 21.0302 17.1143 21.0302 18.1006C21.0302 19.0868 21.8714 19.696 23.1187 19.696C24.8011 19.667 26.1935 18.5067 26.1935 16.7952Z" fill="#833AE0"/>
<path d="M46.9626 13.1983V22.2195H43.0177V13.7495C43.0177 12.067 41.9444 10.9358 40.32 10.9358C38.6956 10.9358 37.5643 12.096 37.5643 13.7495V22.2486H33.5903V7.68695H37.2452V8.99228C38.2315 8.00603 39.7108 7.33887 41.5093 7.33887C44.9031 7.36787 46.9626 9.71746 46.9626 13.1983Z" fill="#833AE0"/>
<path d="M60.2189 22.2195L54.3594 14.1555V22.2195H50.3854V0.174072H54.3594V13.8655L59.5807 7.65792H64.2799L58.8265 14.0975L64.744 22.2195H60.2189Z" fill="#833AE0"/>
</svg>
